<svg xmlns="http://www.w3.org/2000/svg" viewBox="0 0 97.5 108"><defs><style>.cls-1{fill:#0ca1f9;}.cls-2{fill:#071987;}</style></defs><g id="Ebene_2" data-name="Ebene 2"><g id="Ebene_1-2" data-name="Ebene 1"><path class="cls-1" d="M48.75,108l-.19,0c-14.16-4.14-24.89-10.34-32.8-19C5.16,77.45,0,62.23,0,42.44V11l.62,0A143.88,143.88,0,0,0,48.51.1l.24-.1L49,.1A143.81,143.81,0,0,0,96.88,10.91l.61,0v.62c0,5.86,0,18.56,0,25.92v4.95c0,19.79-5.15,35-15.76,46.56-7.91,8.61-18.64,14.81-32.8,19ZM1.31,12.18V42.44c0,19.44,5,34.38,15.41,45.67,7.72,8.4,18.19,14.46,32,18.53,13.83-4.07,24.31-10.13,32-18.53C91.14,76.82,96.18,61.88,96.18,42.44V12.18A144.8,144.8,0,0,1,48.75,1.41,144.8,144.8,0,0,1,1.31,12.18Z"/><path class="cls-2" d="M44.65,71.43H43L26.66,55.06V53.44l7-7h1.62L43.84,55,62.23,36.6h1.62l7,7v1.62ZM29.56,54.26,43.84,68.53l24.1-24.1L63,39.49l-19.2,19.2L34.5,49.35Z"/></g></g></svg>