<svg xmlns="http://www.w3.org/2000/svg" viewBox="0 0 140.34 95.15"><defs><style>.cls-1{fill:#0ca1f9;}.cls-2{fill:#fff;}</style></defs><g id="Ebene_2" data-name="Ebene 2"><g id="Ebene_1-2" data-name="Ebene 1"><path class="cls-1" d="M12.94,64.13c.16.25.33.5.5.75A12.71,12.71,0,0,0,15,66.62c.16.16.32.31.5.46l.49.4a12.5,12.5,0,1,0,0-19.77l-.49.4a5.35,5.35,0,0,0-.5.45,12.79,12.79,0,0,0-1.53,1.75c-.17.24-.34.49-.5.75s-.34.58-.49.88a12.36,12.36,0,0,0,0,11.31C12.6,63.55,12.77,63.84,12.94,64.13Zm0-9.21a12.6,12.6,0,0,1,.5-1.54A10.92,10.92,0,0,1,15,50.81a6.69,6.69,0,0,1,.5-.58c.16-.18.32-.36.49-.52a11,11,0,1,1,0,15.77c-.17-.17-.33-.34-.49-.52a5.57,5.57,0,0,1-.5-.59,10.92,10.92,0,0,1-1.53-2.57,13,13,0,0,1-.5-1.53,10.69,10.69,0,0,1,0-5.35Z"/><path class="cls-1" d="M13.44,0V41.21c.5-.29,1-.55,1.53-.8V1.52H138.81V84.17H55.19a15.15,15.15,0,0,1,.31,1.52h84.84V0Z"/><path class="cls-1" d="M46.62,86.19c-.07-.17-.16-.33-.24-.5a13.12,13.12,0,0,0-.84-1.52l-.33-.5c-.12-.17-.25-.34-.38-.5a13.81,13.81,0,0,0-11-5.42h-20l-.42,0-.5,0c-.16,0-.33,0-.49,0A13.88,13.88,0,0,0,0,91.61v3.54H1.52V91.61A12.35,12.35,0,0,1,12.45,79.36l.49,0,.5,0,.42,0h20a12.31,12.31,0,0,1,9,3.9c.15.16.31.33.45.5a6.12,6.12,0,0,1,.39.5l1,1.52.24.5c.08.16.17.33.24.5a12.24,12.24,0,0,1,1,4.92v3.54h1.53V91.61a13.83,13.83,0,0,0-.92-4.92C46.74,86.52,46.69,86.35,46.62,86.19Z"/><path class="cls-2" d="M52.64,61.54l-7.19-7.19L68.12,31.68,81.06,44.62l9.88-9.88H87.76V24.57h21v21H98.59V41.45L81.06,59,68.12,46.05Zm-3.59-7.19,3.59,3.59L68.12,42.46,81.06,55.4l20.07-20.08V43h5.08V27.11H90.3V32.2h6.77l-16,16L68.12,35.28Z"/></g></g></svg>