<svg xmlns="http://www.w3.org/2000/svg" viewBox="0 0 105.53 105.53"><defs><style>.cls-1{fill:#0ca1f9;}.cls-2{fill:#fff;}</style></defs><g id="Ebene_2" data-name="Ebene 2"><g id="Ebene_1-2" data-name="Ebene 1"><path class="cls-1" d="M52.76,105.53a52.77,52.77,0,1,1,52.77-52.77A52.82,52.82,0,0,1,52.76,105.53Zm0-104.25a51.49,51.49,0,1,0,51.49,51.48A51.53,51.53,0,0,0,52.76,1.28Z"/><path class="cls-2" d="M35.48,48.91a8.84,8.84,0,0,1-1.25-.08L23.88,47.42,24.54,45c.15-.55.32-1.11.52-1.71a30.08,30.08,0,0,1,9.57-13.82c.44-.36.91-.72,1.43-1.09l2.16-1.55L43,36.72a8.37,8.37,0,0,1-7.54,12.19Zm-8.37-3.63,7.47,1a5.84,5.84,0,0,0,6.14-8.46l-3.47-7.2c-.36.26-.69.52-1,.77a27.51,27.51,0,0,0-8.77,12.65C27.34,44.48,27.22,44.88,27.11,45.28Z"/><path class="cls-2" d="M39.26,79.31l-2.13-1.39c-.55-.36-1-.69-1.47-1A30,30,0,0,1,25.54,63.62c-.23-.59-.42-1.14-.6-1.7l-.81-2.54L35,57.9A8.39,8.39,0,0,1,43.75,70ZM27.49,61.5c.13.39.27.78.43,1.19a27.49,27.49,0,0,0,9.27,12.16c.31.23.65.47,1,.73l3.23-6.69a5.84,5.84,0,0,0-6.14-8.46Z"/><path class="cls-2" d="M59.06,41a8.32,8.32,0,0,1-2.57-.41,8.43,8.43,0,0,1-5.7-6.68L48.92,23.51l2.64-.13c.52,0,1.06-.05,1.62,0h.09a29.89,29.89,0,0,1,16.11,4.9c.56.37,1.05.7,1.47,1L73,30.86l-8,7.63A8.64,8.64,0,0,1,59.06,41ZM52,25.92l1.35,7.49a5.92,5.92,0,0,0,4,4.7,6,6,0,0,0,6-1.47L69,31.11c-.31-.23-.66-.46-1-.72a27.43,27.43,0,0,0-14.75-4.48h-.14A10.69,10.69,0,0,0,52,25.92Z"/><path class="cls-2" d="M52.93,82.18l-2.88,0L52,71.48A8.39,8.39,0,0,1,66.2,66.85L73.67,74l-2,1.6c-.45.36-.93.72-1.42,1.07A29.91,29.91,0,0,1,54.5,82.14C54,82.16,53.45,82.18,52.93,82.18ZM60.24,67a5.71,5.71,0,0,0-1.78.28,5.92,5.92,0,0,0-4,4.7L53.1,79.62l1.27,0a27.4,27.4,0,0,0,14.4-5l1-.75L64.43,68.7A6,6,0,0,0,60.24,67Z"/><path class="cls-2" d="M79.68,65.39l-9.38-5a8.4,8.4,0,0,1,0-15l9.47-5.08.87,2.46c.19.55.37,1.11.54,1.71a30.11,30.11,0,0,1-.06,16.76h0c-.19.63-.37,1.19-.56,1.71ZM78.35,44l-6.84,3.67a5.84,5.84,0,0,0,0,10.46l6.77,3.63c.13-.37.26-.77.39-1.21h0a27.66,27.66,0,0,0,0-15.34C78.6,44.77,78.48,44.37,78.35,44Z"/></g></g></svg>