<svg xmlns="http://www.w3.org/2000/svg" viewBox="0 0 22 22"><defs><style>.cls-1{fill:#fff;}</style></defs><g id="Ebene_2" data-name="Ebene 2"><g id="Ebene_1-2" data-name="Ebene 1"><path class="cls-1" d="M11,22A11,11,0,1,1,22,11,11,11,0,0,1,11,22ZM11,.27A10.74,10.74,0,1,0,21.74,11,10.74,10.74,0,0,0,11,.27Z"/><path class="cls-1" d="M7.4,10.2l-.26,0L5,9.89l.14-.51A2.47,2.47,0,0,1,5.23,9a6.16,6.16,0,0,1,2-2.88c.09-.08.19-.15.3-.23L8,5.59,9,7.66a1.75,1.75,0,0,1-.14,1.82A1.73,1.73,0,0,1,7.4,10.2ZM5.65,9.44l1.56.21A1.21,1.21,0,0,0,8.49,7.89l-.72-1.5a1.92,1.92,0,0,0-.21.16A5.75,5.75,0,0,0,5.73,9.19C5.7,9.28,5.68,9.36,5.65,9.44Z"/><path class="cls-1" d="M8.19,16.54l-.45-.29L7.44,16a6.19,6.19,0,0,1-2.11-2.77l-.13-.36L5,12.38l2.26-.31A1.75,1.75,0,0,1,9.12,14.6ZM5.73,12.82l.09.25a5.77,5.77,0,0,0,1.93,2.54l.22.15.67-1.39a1.22,1.22,0,0,0-.09-1.28,1.25,1.25,0,0,0-1.19-.49Z"/><path class="cls-1" d="M12.31,8.54a1.6,1.6,0,0,1-.53-.09,1.76,1.76,0,0,1-1.19-1.39L10.2,4.9l.55,0h.36a6.28,6.28,0,0,1,3.36,1c.11.08.22.15.3.22l.45.33L13.56,8A1.82,1.82,0,0,1,12.31,8.54ZM10.83,5.41,11.11,7a1.22,1.22,0,0,0,2.08.67l1.2-1.15a1.39,1.39,0,0,0-.22-.15A5.75,5.75,0,0,0,11.1,5.4h-.27Z"/><path class="cls-1" d="M11,17.14h-.6l.4-2.23a1.74,1.74,0,0,1,3-1l1.56,1.49-.41.34-.3.22a6.3,6.3,0,0,1-3.29,1.14ZM12.56,14a1.19,1.19,0,0,0-.37.06,1.25,1.25,0,0,0-.83,1l-.29,1.6h.27a5.69,5.69,0,0,0,3-1.05l.21-.15-1.11-1.08A1.3,1.3,0,0,0,12.56,14Z"/><path class="cls-1" d="M16.62,13.64l-2-1.05a1.75,1.75,0,0,1,0-3.12l2-1.06.18.51q.06.16.12.36a6.22,6.22,0,0,1,0,3.49h0a3.07,3.07,0,0,1-.11.36Zm-.28-4.47-1.43.77A1.22,1.22,0,0,0,14.24,11a1.24,1.24,0,0,0,.67,1.09l1.41.75a1.47,1.47,0,0,0,.08-.25h0A5.58,5.58,0,0,0,16.64,11a6.08,6.08,0,0,0-.22-1.58A2.41,2.41,0,0,1,16.34,9.17Z"/></g></g></svg>