<svg xmlns="http://www.w3.org/2000/svg" viewBox="0 0 27.43 18.6"><defs><style>.cls-1{fill:#fff;}</style></defs><g id="Ebene_2" data-name="Ebene 2"><g id="Ebene_1-2" data-name="Ebene 1"><path class="cls-1" d="M2.53,12.53a1.3,1.3,0,0,0,.1.15,3.24,3.24,0,0,0,.29.34l.1.09.1.08A2.44,2.44,0,1,0,4.61,8.81a2.48,2.48,0,0,0-1.49.51L3,9.4l-.1.09a3.24,3.24,0,0,0-.29.34l-.1.15-.1.17a2.48,2.48,0,0,0,0,2.21Zm0-1.8c0-.1.06-.2.1-.3a1.92,1.92,0,0,1,.29-.5L3,9.82l.1-.11a2.15,2.15,0,1,1,0,3.09L3,12.69l-.1-.11a1.92,1.92,0,0,1-.29-.5c0-.1-.07-.2-.1-.3a2,2,0,0,1,0-1Z"/><path class="cls-1" d="M2.63,0V8.05l.29-.15V.3H27.13V16.45H10.79l.06.3H27.43V0Z"/><path class="cls-1" d="M9.11,16.84a.41.41,0,0,0,0-.09,1.43,1.43,0,0,0-.16-.3l-.06-.1-.08-.1a2.7,2.7,0,0,0-2.14-1.06H2.43A2.71,2.71,0,0,0,0,17.9v.7H.3v-.7a2.41,2.41,0,0,1,2.13-2.39H6.62a2.42,2.42,0,0,1,1.75.76l.09.1.08.1.19.3a.41.41,0,0,1,0,.09l.05.1a2.39,2.39,0,0,1,.2,1v.7h.3v-.7a2.77,2.77,0,0,0-.18-1A1,1,0,0,1,9.11,16.84Z"/><path class="cls-1" d="M10.72,12l-1.39-1.4,4.41-4.41,2.51,2.52,1.92-1.92h-.61v-2h4.08V8.91h-2v-.8l-3.41,3.41L13.74,9ZM10,10.62l.69.7,3-3,2.51,2.51,3.91-3.9v1.5h1V5.32H18.05v1h1.32L16.25,9.43,13.74,6.91Z"/></g></g></svg>