<svg xmlns="http://www.w3.org/2000/svg" viewBox="0 0 20.5 22.71"><defs><style>.cls-1{fill:#fff;}</style></defs><g id="Ebene_2" data-name="Ebene 2"><g id="Ebene_1-2" data-name="Ebene 1"><path class="cls-1" d="M10.25,22.71l0,0a14.62,14.62,0,0,1-6.9-4C1.08,16.28,0,13.08,0,8.92V2.3H.13A30.21,30.21,0,0,0,10.2,0l.05,0,.05,0A30.21,30.21,0,0,0,20.37,2.29h.13V8.92c0,4.16-1.09,7.36-3.32,9.79a14.59,14.59,0,0,1-6.89,4ZM.28,2.56c0,1.28,0,3.83,0,5.32v1c0,4.09,1.06,7.23,3.24,9.6a14.28,14.28,0,0,0,6.73,3.9A14.28,14.28,0,0,0,17,18.52c2.18-2.37,3.24-5.51,3.24-9.6V2.56A30.32,30.32,0,0,1,10.25.3,30.45,30.45,0,0,1,.28,2.56Z"/><path class="cls-1" d="M9.39,15H9.05L5.61,11.58v-.34L7.08,9.77h.34l1.8,1.79,3.86-3.87h.34l1.47,1.48v.34ZM6.21,11.41l3,3,5.06-5.07-1-1-4,4-2-2Z"/></g></g></svg>