<svg xmlns="http://www.w3.org/2000/svg" viewBox="0 0 27.43 18.6"><defs><style>.cls-1{fill:#fff;}</style></defs><g id="Ebene_2" data-name="Ebene 2"><g id="Ebene_1-2" data-name="Ebene 1"><path class="cls-1" d="M18.28,5.66,16.89,7.05l1.33,1.33L16.89,9.71l1.39,1.39L21,8.38Zm-.69,4.05,1.33-1.33L17.59,7.05l.69-.69,2,2-2,2Z"/><path class="cls-1" d="M15.5,3.53l-2.6,9.15,1.9.53,2.59-9.14Zm-1,9.08-1-.27,2.33-8.2.94.27Z"/><path class="cls-1" d="M13.16,7.05,11.78,5.66,9.06,8.38l2.72,2.72,1.38-1.39L11.83,8.38Zm-.69,2.66-.69.69-2-2,2-2,.69.69L11.14,8.38Z"/><path class="cls-1" d="M2.53,12.53a1.3,1.3,0,0,0,.1.15,3.24,3.24,0,0,0,.29.34l.1.09.1.08A2.44,2.44,0,1,0,4.61,8.81a2.48,2.48,0,0,0-1.49.51L3,9.4l-.1.09a3.24,3.24,0,0,0-.29.34l-.1.15-.1.17a2.48,2.48,0,0,0,0,2.21Zm0-1.8c0-.1.06-.2.1-.3a1.92,1.92,0,0,1,.29-.5L3,9.82l.1-.11a2.15,2.15,0,1,1,0,3.09L3,12.69l-.1-.11a1.92,1.92,0,0,1-.29-.5c0-.1-.07-.2-.1-.3a2,2,0,0,1,0-1Z"/><path class="cls-1" d="M2.63,0V8.05l.29-.15V.3H27.13V16.45H10.79l.06.3H27.43V0Z"/><path class="cls-1" d="M9.11,16.84a.41.41,0,0,0,0-.09,1.43,1.43,0,0,0-.16-.3l-.06-.1-.08-.1a2.7,2.7,0,0,0-2.14-1.06H2.43A2.71,2.71,0,0,0,0,17.9v.7H.3v-.7a2.41,2.41,0,0,1,2.13-2.39H6.62a2.42,2.42,0,0,1,1.75.76l.09.1.08.1.19.3a.41.41,0,0,1,0,.09l.05.1a2.39,2.39,0,0,1,.2,1v.7h.3v-.7a2.77,2.77,0,0,0-.18-1A1,1,0,0,1,9.11,16.84Z"/></g></g></svg>